# xmcd
#
# Track frame offsets:
#	150
#	10353
#	21346
#	34476
#	47688
#	62347
#	74890
#	88031
#	102313
#	113303
#	125932
#	139492
#	153648
#	164148
#	176478
#	189474
#	202382
#	214704
#
# Disc length: 3031
#
# Revision: 3
# Processed by: cddbd v1.5.1PL0 Copyright (c) Steve Scherf et al.
# Submitted via: VisiTrax 2.9.9.202 - For more info visit www.synapsa.com
# Normalized: r2:DSETVAR1
#
DISCID=1a0bd512
DTITLE=Various Artist - Blues collection vol. 3 After Midnite - CD 4
DYEAR=2001
DGENRE=Blues
TTITLE0=Floyd Dixon - Wino Blues
TTITLE1=Amos Milburn - Amos' Blues
TTITLE2=Walter Brown - Nasty Attitude
TTITLE3=Andrew Tibbs - Bilbo Is Dead
TTITLE4=Lowell Fulson - Good Woman Blues
TTITLE5=Floyd Dixon - Sad Journey
TTITLE6=Big Jay McNeely - All That Wine Is Gone
TTITLE7=King  Cole Trio - Easy Listening Blues
TTITLE8=Tommy  Douglas - I Want You To Be My Guy
TTITLE9=Floyd Dixon - Real Lovin' Mama
TTITLE10=Julia Lee and Her Boy Friends - Draggin' My Heart Around
TTITLE11=Bus Moten and His Men - Best Friend Blues
TTITLE12=Tommy  Douglas - If Yoiu Don't, Why Don't Ya
TTITLE13=John Lee Hooker - Crying All Night
TTITLE14=Jay McShann's Kansas City Stompers - Trouble In Mind
TTITLE15=Sunnyland Slim - Johnson Machine Gun
TTITLE16=Floyd Dixon - We'll Be Together
TTITLE17=Cootie Williams and His Orchestra - Wrong Neighborhood
EXTD=
EXTT0=
EXTT1=
EXTT2=
EXTT3=
EXTT4=
EXTT5=
EXTT6=
EXTT7=
EXTT8=
EXTT9=
EXTT10=
EXTT11=
EXTT12=
EXTT13=
EXTT14=
EXTT15=
EXTT16=
EXTT17=
PLAYORDER=
